# xmcd
#
# Track frame offsets:
#	150
#	20417
#	35925
#	50314
#	67707
#	87326
#	106689
#	115672
#	131745
#	157878
#	202184
#	231909
#	269154
#	288061
#	301622
#
# Disc length: 4215 seconds
#
# Revision: 2
# Processed by: cddbd v1.5.2PL0 Copyright (c) Steve Scherf et al.
# Submitted via: EasyCDDAExtractor 15.3.0.1
#
DISCID=c710750f
DTITLE=Gloria Trevi - Inmortal - CD 2
DYEAR=2016
DGENRE=Latin
TTITLE0=Las Pequeñas Cosas
TTITLE1=I Will Survive, Todos Me Miran
TTITLE2=Tu Y Yo
TTITLE3=No Querias Lastimarme
TTITLE4=Me Siento Tan Sola
TTITLE5=Desahogo
TTITLE6=Hoy Me Ire De Casa
TTITLE7=Cinco Minutos
TTITLE8=Como Si Fuera La Primera Vez
TTITLE9=El Recuento De Los Daños, Con Los Ojos Cerrados, Vestida De Azucar, El
TTITLE9=Favor De La Soledad
TTITLE10=El Amor
TTITLE11=Pelo Suelto, Los Borregos, La Noche, Me Rio De Ti, Dr. Psiquiatra
TTITLE12=Inmortal
TTITLE13=Quitame La Ropa
TTITLE14=Dimelo Al Reves
EXTD=
EXTT0=
EXTT1=
EXTT2=
EXTT3=
EXTT4=
EXTT5=
EXTT6=
EXTT7=
EXTT8=
EXTT9=
EXTT10=
EXTT11=
EXTT12=
EXTT13=
EXTT14=
PLAYORDER=
